<mxfile host="app.diagrams.net" agent="Mozilla/5.0 (Windows NT 10.0; Win64; x64) AppleWebKit/537.36 (KHTML, like Gecko) Chrome/129.0.0.0 Safari/537.36" version="24.7.8">
  <diagram name="Page-1" id="0783ab3e-0a74-02c8-0abd-f7b4e66b4bec">
    <mxGraphModel dx="1436" dy="853" grid="1" gridSize="10" guides="1" tooltips="1" connect="1" arrows="1" fold="1" page="1" pageScale="1" pageWidth="850" pageHeight="1100" background="none" math="0" shadow="0">
      <root>
        <mxCell id="0" />
        <mxCell id="1" parent="0" />
        <mxCell id="ugw9QOvdHv5UfoX_W4B9-60" value="" style="rounded=0;whiteSpace=wrap;html=1;" vertex="1" parent="1">
          <mxGeometry x="95" y="210" width="660" height="640" as="geometry" />
        </mxCell>
        <mxCell id="ugw9QOvdHv5UfoX_W4B9-40" style="edgeStyle=orthogonalEdgeStyle;rounded=0;orthogonalLoop=1;jettySize=auto;html=1;entryX=0;entryY=0.5;entryDx=0;entryDy=0;" edge="1" parent="1" source="ugw9QOvdHv5UfoX_W4B9-1" target="ugw9QOvdHv5UfoX_W4B9-5">
          <mxGeometry relative="1" as="geometry" />
        </mxCell>
        <mxCell id="ugw9QOvdHv5UfoX_W4B9-41" style="edgeStyle=orthogonalEdgeStyle;rounded=0;orthogonalLoop=1;jettySize=auto;html=1;" edge="1" parent="1" source="ugw9QOvdHv5UfoX_W4B9-1" target="ugw9QOvdHv5UfoX_W4B9-8">
          <mxGeometry relative="1" as="geometry" />
        </mxCell>
        <mxCell id="ugw9QOvdHv5UfoX_W4B9-42" style="edgeStyle=orthogonalEdgeStyle;rounded=0;orthogonalLoop=1;jettySize=auto;html=1;entryX=0;entryY=0.5;entryDx=0;entryDy=0;" edge="1" parent="1" source="ugw9QOvdHv5UfoX_W4B9-1" target="ugw9QOvdHv5UfoX_W4B9-9">
          <mxGeometry relative="1" as="geometry" />
        </mxCell>
        <mxCell id="ugw9QOvdHv5UfoX_W4B9-43" style="edgeStyle=orthogonalEdgeStyle;rounded=0;orthogonalLoop=1;jettySize=auto;html=1;entryX=0;entryY=0.5;entryDx=0;entryDy=0;" edge="1" parent="1" source="ugw9QOvdHv5UfoX_W4B9-1" target="ugw9QOvdHv5UfoX_W4B9-11">
          <mxGeometry relative="1" as="geometry" />
        </mxCell>
        <mxCell id="ugw9QOvdHv5UfoX_W4B9-44" style="edgeStyle=orthogonalEdgeStyle;rounded=0;orthogonalLoop=1;jettySize=auto;html=1;entryX=0;entryY=0.5;entryDx=0;entryDy=0;" edge="1" parent="1" source="ugw9QOvdHv5UfoX_W4B9-1" target="ugw9QOvdHv5UfoX_W4B9-15">
          <mxGeometry relative="1" as="geometry" />
        </mxCell>
        <mxCell id="ugw9QOvdHv5UfoX_W4B9-1" value="User&lt;div&gt;&lt;br&gt;&lt;/div&gt;" style="shape=umlActor;verticalLabelPosition=bottom;verticalAlign=top;html=1;outlineConnect=0;direction=east;rotation=0;" vertex="1" parent="1">
          <mxGeometry x="25" y="500" width="50" height="100" as="geometry" />
        </mxCell>
        <mxCell id="ugw9QOvdHv5UfoX_W4B9-24" style="edgeStyle=orthogonalEdgeStyle;rounded=0;orthogonalLoop=1;jettySize=auto;html=1;entryX=0;entryY=0.5;entryDx=0;entryDy=0;dashed=1;" edge="1" parent="1" source="ugw9QOvdHv5UfoX_W4B9-5" target="ugw9QOvdHv5UfoX_W4B9-6">
          <mxGeometry relative="1" as="geometry">
            <Array as="points">
              <mxPoint x="325" y="340" />
              <mxPoint x="325" y="269" />
              <mxPoint x="445" y="269" />
            </Array>
          </mxGeometry>
        </mxCell>
        <mxCell id="ugw9QOvdHv5UfoX_W4B9-45" value="&amp;lt;&amp;lt;include&amp;gt;&amp;gt;" style="edgeLabel;html=1;align=center;verticalAlign=middle;resizable=0;points=[];" vertex="1" connectable="0" parent="ugw9QOvdHv5UfoX_W4B9-24">
          <mxGeometry x="0.6415" relative="1" as="geometry">
            <mxPoint x="-34" as="offset" />
          </mxGeometry>
        </mxCell>
        <mxCell id="ugw9QOvdHv5UfoX_W4B9-30" style="edgeStyle=orthogonalEdgeStyle;rounded=0;orthogonalLoop=1;jettySize=auto;html=1;dashed=1;" edge="1" parent="1" source="ugw9QOvdHv5UfoX_W4B9-5" target="ugw9QOvdHv5UfoX_W4B9-7">
          <mxGeometry relative="1" as="geometry" />
        </mxCell>
        <mxCell id="ugw9QOvdHv5UfoX_W4B9-46" value="&amp;lt;&amp;lt;include&amp;gt;&amp;gt;" style="edgeLabel;html=1;align=center;verticalAlign=middle;resizable=0;points=[];" vertex="1" connectable="0" parent="ugw9QOvdHv5UfoX_W4B9-30">
          <mxGeometry x="0.5205" y="2" relative="1" as="geometry">
            <mxPoint x="-37" y="2" as="offset" />
          </mxGeometry>
        </mxCell>
        <mxCell id="ugw9QOvdHv5UfoX_W4B9-31" style="edgeStyle=orthogonalEdgeStyle;rounded=0;orthogonalLoop=1;jettySize=auto;html=1;entryX=0;entryY=0.5;entryDx=0;entryDy=0;dashed=1;" edge="1" parent="1" source="ugw9QOvdHv5UfoX_W4B9-5" target="ugw9QOvdHv5UfoX_W4B9-10">
          <mxGeometry relative="1" as="geometry">
            <Array as="points">
              <mxPoint x="325" y="340" />
              <mxPoint x="325" y="410" />
            </Array>
          </mxGeometry>
        </mxCell>
        <mxCell id="ugw9QOvdHv5UfoX_W4B9-47" value="&amp;lt;&amp;lt;include&amp;gt;&amp;gt;" style="edgeLabel;html=1;align=center;verticalAlign=middle;resizable=0;points=[];" vertex="1" connectable="0" parent="ugw9QOvdHv5UfoX_W4B9-31">
          <mxGeometry x="0.6283" y="2" relative="1" as="geometry">
            <mxPoint x="-34" as="offset" />
          </mxGeometry>
        </mxCell>
        <mxCell id="ugw9QOvdHv5UfoX_W4B9-5" value="&lt;p data-pm-slice=&quot;1 1 [&amp;quot;tiptapChildEditor&amp;quot;,{&amp;quot;id&amp;quot;:&amp;quot;c9d57a23-f2d8-44eb-a6fa-353c06e8a5f1&amp;quot;,&amp;quot;entityid&amp;quot;:&amp;quot;&amp;quot;,&amp;quot;shapeId&amp;quot;:&amp;quot;10w2ybn2qs&amp;quot;,&amp;quot;textId&amp;quot;:&amp;quot;TKFUad1yQei&amp;quot;}]&quot; dir=&quot;ltr&quot;&gt;&lt;span style=&quot;font-size: 9pt; font-family: Arial;&quot;&gt;&lt;strong&gt;Account Management&lt;/strong&gt;&lt;/span&gt;&lt;/p&gt;" style="ellipse;whiteSpace=wrap;html=1;" vertex="1" parent="1">
          <mxGeometry x="155" y="310" width="120" height="60" as="geometry" />
        </mxCell>
        <mxCell id="ugw9QOvdHv5UfoX_W4B9-6" value="Sign up" style="ellipse;whiteSpace=wrap;html=1;" vertex="1" parent="1">
          <mxGeometry x="445" y="230" width="120" height="60" as="geometry" />
        </mxCell>
        <mxCell id="ugw9QOvdHv5UfoX_W4B9-7" value="Log in" style="ellipse;whiteSpace=wrap;html=1;" vertex="1" parent="1">
          <mxGeometry x="455" y="310" width="120" height="60" as="geometry" />
        </mxCell>
        <mxCell id="ugw9QOvdHv5UfoX_W4B9-32" style="edgeStyle=orthogonalEdgeStyle;rounded=0;orthogonalLoop=1;jettySize=auto;html=1;dashed=1;" edge="1" parent="1" source="ugw9QOvdHv5UfoX_W4B9-8" target="ugw9QOvdHv5UfoX_W4B9-16">
          <mxGeometry relative="1" as="geometry" />
        </mxCell>
        <mxCell id="ugw9QOvdHv5UfoX_W4B9-48" value="&amp;lt;&amp;lt;include&amp;gt;&amp;gt;" style="edgeLabel;html=1;align=center;verticalAlign=middle;resizable=0;points=[];" vertex="1" connectable="0" parent="ugw9QOvdHv5UfoX_W4B9-32">
          <mxGeometry x="-0.0795" relative="1" as="geometry">
            <mxPoint as="offset" />
          </mxGeometry>
        </mxCell>
        <mxCell id="ugw9QOvdHv5UfoX_W4B9-8" value="&lt;b&gt;View artist info&lt;/b&gt;" style="ellipse;whiteSpace=wrap;html=1;" vertex="1" parent="1">
          <mxGeometry x="155" y="460" width="120" height="60" as="geometry" />
        </mxCell>
        <mxCell id="ugw9QOvdHv5UfoX_W4B9-33" value="" style="edgeStyle=orthogonalEdgeStyle;rounded=0;orthogonalLoop=1;jettySize=auto;html=1;dashed=1;" edge="1" parent="1" source="ugw9QOvdHv5UfoX_W4B9-9" target="ugw9QOvdHv5UfoX_W4B9-17">
          <mxGeometry relative="1" as="geometry" />
        </mxCell>
        <mxCell id="ugw9QOvdHv5UfoX_W4B9-49" value="&amp;lt;&amp;lt;include&amp;gt;&amp;gt;" style="edgeLabel;html=1;align=center;verticalAlign=middle;resizable=0;points=[];" vertex="1" connectable="0" parent="ugw9QOvdHv5UfoX_W4B9-33">
          <mxGeometry x="-0.0026" y="2" relative="1" as="geometry">
            <mxPoint as="offset" />
          </mxGeometry>
        </mxCell>
        <mxCell id="ugw9QOvdHv5UfoX_W4B9-9" value="&lt;b&gt;View song info&lt;/b&gt;" style="ellipse;whiteSpace=wrap;html=1;" vertex="1" parent="1">
          <mxGeometry x="155" y="540" width="120" height="60" as="geometry" />
        </mxCell>
        <mxCell id="ugw9QOvdHv5UfoX_W4B9-10" value="Log out" style="ellipse;whiteSpace=wrap;html=1;" vertex="1" parent="1">
          <mxGeometry x="455" y="380" width="120" height="60" as="geometry" />
        </mxCell>
        <mxCell id="ugw9QOvdHv5UfoX_W4B9-35" value="" style="edgeStyle=orthogonalEdgeStyle;rounded=0;orthogonalLoop=1;jettySize=auto;html=1;dashed=1;" edge="1" parent="1" source="ugw9QOvdHv5UfoX_W4B9-11" target="ugw9QOvdHv5UfoX_W4B9-18">
          <mxGeometry relative="1" as="geometry" />
        </mxCell>
        <mxCell id="ugw9QOvdHv5UfoX_W4B9-50" value="&amp;lt;&amp;lt;include&amp;gt;&amp;gt;" style="edgeLabel;html=1;align=center;verticalAlign=middle;resizable=0;points=[];" vertex="1" connectable="0" parent="ugw9QOvdHv5UfoX_W4B9-35">
          <mxGeometry x="-0.0026" relative="1" as="geometry">
            <mxPoint as="offset" />
          </mxGeometry>
        </mxCell>
        <mxCell id="ugw9QOvdHv5UfoX_W4B9-11" value="&lt;p dir=&quot;ltr&quot;&gt;&lt;span style=&quot;font-size: 9pt; font-family: Arial;&quot;&gt;&lt;strong&gt;Browse &lt;/strong&gt;&lt;/span&gt;&lt;/p&gt;&lt;p dir=&quot;ltr&quot;&gt;&lt;span style=&quot;font-size: 9pt; font-family: Arial;&quot;&gt;&lt;strong&gt;Catalogue&lt;/strong&gt;&lt;/span&gt;&lt;/p&gt;" style="ellipse;whiteSpace=wrap;html=1;" vertex="1" parent="1">
          <mxGeometry x="155" y="620" width="120" height="60" as="geometry" />
        </mxCell>
        <mxCell id="ugw9QOvdHv5UfoX_W4B9-37" value="" style="edgeStyle=orthogonalEdgeStyle;rounded=0;orthogonalLoop=1;jettySize=auto;html=1;dashed=1;" edge="1" parent="1" source="ugw9QOvdHv5UfoX_W4B9-15" target="ugw9QOvdHv5UfoX_W4B9-20">
          <mxGeometry relative="1" as="geometry" />
        </mxCell>
        <mxCell id="ugw9QOvdHv5UfoX_W4B9-52" value="&amp;lt;&amp;lt;include&amp;gt;&amp;gt;" style="edgeLabel;html=1;align=center;verticalAlign=middle;resizable=0;points=[];" vertex="1" connectable="0" parent="ugw9QOvdHv5UfoX_W4B9-37">
          <mxGeometry x="0.5365" y="1" relative="1" as="geometry">
            <mxPoint as="offset" />
          </mxGeometry>
        </mxCell>
        <mxCell id="ugw9QOvdHv5UfoX_W4B9-38" style="edgeStyle=orthogonalEdgeStyle;rounded=0;orthogonalLoop=1;jettySize=auto;html=1;dashed=1;" edge="1" parent="1" source="ugw9QOvdHv5UfoX_W4B9-15" target="ugw9QOvdHv5UfoX_W4B9-19">
          <mxGeometry relative="1" as="geometry" />
        </mxCell>
        <mxCell id="ugw9QOvdHv5UfoX_W4B9-51" value="&amp;lt;&amp;lt;include&amp;gt;&amp;gt;" style="edgeLabel;html=1;align=center;verticalAlign=middle;resizable=0;points=[];" vertex="1" connectable="0" parent="ugw9QOvdHv5UfoX_W4B9-38">
          <mxGeometry x="0.5937" y="1" relative="1" as="geometry">
            <mxPoint as="offset" />
          </mxGeometry>
        </mxCell>
        <mxCell id="ugw9QOvdHv5UfoX_W4B9-15" value="&lt;p dir=&quot;ltr&quot;&gt;&lt;font face=&quot;Arial&quot;&gt;&lt;b&gt;Search Function&lt;/b&gt;&lt;/font&gt;&lt;/p&gt;" style="ellipse;whiteSpace=wrap;html=1;" vertex="1" parent="1">
          <mxGeometry x="155" y="740" width="120" height="60" as="geometry" />
        </mxCell>
        <mxCell id="ugw9QOvdHv5UfoX_W4B9-16" value="Select artist" style="ellipse;whiteSpace=wrap;html=1;" vertex="1" parent="1">
          <mxGeometry x="375" y="460" width="120" height="60" as="geometry" />
        </mxCell>
        <mxCell id="ugw9QOvdHv5UfoX_W4B9-34" value="&#xa;&lt;span style=&quot;color: rgb(0, 0, 0); font-family: Helvetica; font-size: 11px; font-style: normal; font-variant-ligatures: normal; font-variant-caps: normal; font-weight: 400; letter-spacing: normal; orphans: 2; text-align: center; text-indent: 0px; text-transform: none; widows: 2; word-spacing: 0px; -webkit-text-stroke-width: 0px; white-space: nowrap; background-color: rgb(255, 255, 255); text-decoration-thickness: initial; text-decoration-style: initial; text-decoration-color: initial; display: inline !important; float: none;&quot;&gt;&amp;lt;&amp;lt;include&amp;gt;&amp;gt;&lt;/span&gt;&#xa;&#xa;" style="edgeStyle=orthogonalEdgeStyle;rounded=0;orthogonalLoop=1;jettySize=auto;html=1;dashed=1;" edge="1" parent="1" source="ugw9QOvdHv5UfoX_W4B9-17">
          <mxGeometry relative="1" as="geometry">
            <mxPoint x="615" y="570" as="targetPoint" />
          </mxGeometry>
        </mxCell>
        <mxCell id="ugw9QOvdHv5UfoX_W4B9-17" value="Select song" style="ellipse;whiteSpace=wrap;html=1;" vertex="1" parent="1">
          <mxGeometry x="375" y="540" width="120" height="60" as="geometry" />
        </mxCell>
        <mxCell id="ugw9QOvdHv5UfoX_W4B9-36" value="&#xa;&lt;span style=&quot;color: rgb(0, 0, 0); font-family: Helvetica; font-size: 11px; font-style: normal; font-variant-ligatures: normal; font-variant-caps: normal; font-weight: 400; letter-spacing: normal; orphans: 2; text-align: center; text-indent: 0px; text-transform: none; widows: 2; word-spacing: 0px; -webkit-text-stroke-width: 0px; white-space: nowrap; background-color: rgb(255, 255, 255); text-decoration-thickness: initial; text-decoration-style: initial; text-decoration-color: initial; display: inline !important; float: none;&quot;&gt;&amp;lt;&amp;lt;include&amp;gt;&amp;gt;&lt;/span&gt;&#xa;&#xa;" style="edgeStyle=orthogonalEdgeStyle;rounded=0;orthogonalLoop=1;jettySize=auto;html=1;dashed=1;" edge="1" parent="1" source="ugw9QOvdHv5UfoX_W4B9-18">
          <mxGeometry relative="1" as="geometry">
            <mxPoint x="615" y="650" as="targetPoint" />
          </mxGeometry>
        </mxCell>
        <mxCell id="ugw9QOvdHv5UfoX_W4B9-18" value="&lt;p style=&quot;line-height: 10%;&quot; dir=&quot;ltr&quot;&gt;&lt;font face=&quot;Arial&quot;&gt;Song&lt;/font&gt;&lt;/p&gt;&lt;p dir=&quot;ltr&quot;&gt;&lt;font face=&quot;Arial&quot;&gt;Recommendation&lt;/font&gt;&lt;br&gt;&lt;/p&gt;" style="ellipse;whiteSpace=wrap;html=1;" vertex="1" parent="1">
          <mxGeometry x="375" y="620" width="120" height="60" as="geometry" />
        </mxCell>
        <mxCell id="ugw9QOvdHv5UfoX_W4B9-19" value="&lt;p dir=&quot;ltr&quot;&gt;&lt;font face=&quot;Arial&quot;&gt;Search for artist&lt;/font&gt;&lt;/p&gt;&lt;p style=&quot;line-height: 0%;&quot; dir=&quot;ltr&quot;&gt;&lt;font face=&quot;Arial&quot;&gt;song&lt;/font&gt;&lt;/p&gt;" style="ellipse;whiteSpace=wrap;html=1;" vertex="1" parent="1">
          <mxGeometry x="465" y="700" width="120" height="60" as="geometry" />
        </mxCell>
        <mxCell id="ugw9QOvdHv5UfoX_W4B9-20" value="&lt;p dir=&quot;ltr&quot;&gt;&lt;font face=&quot;Arial&quot;&gt;Search by listening&lt;/font&gt;&lt;/p&gt;" style="ellipse;whiteSpace=wrap;html=1;" vertex="1" parent="1">
          <mxGeometry x="465" y="770" width="120" height="60" as="geometry" />
        </mxCell>
        <mxCell id="ugw9QOvdHv5UfoX_W4B9-21" value="Listen" style="ellipse;whiteSpace=wrap;html=1;" vertex="1" parent="1">
          <mxGeometry x="615" y="540" width="120" height="60" as="geometry" />
        </mxCell>
        <mxCell id="ugw9QOvdHv5UfoX_W4B9-22" value="Listen" style="ellipse;whiteSpace=wrap;html=1;" vertex="1" parent="1">
          <mxGeometry x="615" y="620" width="120" height="60" as="geometry" />
        </mxCell>
        <mxCell id="ugw9QOvdHv5UfoX_W4B9-61" style="edgeStyle=orthogonalEdgeStyle;rounded=0;orthogonalLoop=1;jettySize=auto;html=1;exitX=0.5;exitY=0.5;exitDx=0;exitDy=0;exitPerimeter=0;" edge="1" parent="1" source="ugw9QOvdHv5UfoX_W4B9-54" target="ugw9QOvdHv5UfoX_W4B9-16">
          <mxGeometry relative="1" as="geometry">
            <Array as="points">
              <mxPoint x="785" y="570" />
              <mxPoint x="785" y="490" />
            </Array>
          </mxGeometry>
        </mxCell>
        <mxCell id="ugw9QOvdHv5UfoX_W4B9-62" style="edgeStyle=orthogonalEdgeStyle;rounded=0;orthogonalLoop=1;jettySize=auto;html=1;exitX=0.5;exitY=0.5;exitDx=0;exitDy=0;exitPerimeter=0;entryX=0.5;entryY=0;entryDx=0;entryDy=0;" edge="1" parent="1" source="ugw9QOvdHv5UfoX_W4B9-54" target="ugw9QOvdHv5UfoX_W4B9-17">
          <mxGeometry relative="1" as="geometry">
            <Array as="points">
              <mxPoint x="785" y="570" />
              <mxPoint x="785" y="530" />
              <mxPoint x="435" y="530" />
            </Array>
          </mxGeometry>
        </mxCell>
        <mxCell id="ugw9QOvdHv5UfoX_W4B9-54" value="Database system&lt;div&gt;&lt;br&gt;&lt;/div&gt;" style="shape=umlActor;verticalLabelPosition=bottom;verticalAlign=top;html=1;outlineConnect=0;" vertex="1" parent="1">
          <mxGeometry x="795" y="540" width="30" height="60" as="geometry" />
        </mxCell>
      </root>
    </mxGraphModel>
  </diagram>
</mxfile>
